<svg width="20" height="20" viewBox="0 0 20 20" fill="none" xmlns="http://www.w3.org/2000/svg">
<circle cx="10" cy="10" r="9.5" fill="white" stroke="#6F7682"/>
<path d="M3.53956 8.90729L3.10756 8.09929H3.07556L3.15556 8.90729V12.5713H2.53156V6.88329H2.88356L5.56356 10.6193L5.97956 11.3873H6.01956L5.93156 10.6193V6.97129H6.55556V12.6593H6.20356L3.53956 8.90729ZM7.91438 6.97129H10.9624V7.56329H8.57838V9.39529H10.7624V9.98729H8.57838V11.9793H11.0024V12.5713H7.91438V6.97129ZM13.2994 10.7233L13.4274 11.6513H13.4354L13.5714 10.7073L14.7234 6.97129H15.0434L16.2034 10.7233L16.3394 11.6513H16.3474L16.4914 10.7073L17.4354 6.97129H18.0834L16.5234 12.6593H16.1554L15.0194 8.90729L14.8754 8.05929H14.8354L14.6914 8.91529L13.5554 12.6593H13.1874L11.5874 6.97129H12.2914L13.2994 10.7233Z" fill="#6F7682"/>
</svg>
