<svg xmlns="http://www.w3.org/2000/svg" width="48" height="52" viewBox="0 0 48 52" fill="none">
  <line y1="-1.5" x2="62.757" y2="-1.5" transform="matrix(0.621445 -0.783458 0.793474 0.608604 5 51.7561)" stroke="#4798DE" stroke-width="3"/>
  <path d="M46.5 40.4476C46.5 45.9714 42.3677 50.2561 37.5 50.2561C32.6323 50.2561 28.5 45.9714 28.5 40.4476C28.5 34.9238 32.6323 30.6392 37.5 30.6392C42.3677 30.6392 46.5 34.9238 46.5 40.4476Z" stroke="#4798DE" stroke-width="3"/>
  <path d="M19.5 12.9138C19.5 18.4377 15.3677 22.7224 10.5 22.7224C5.63229 22.7224 1.5 18.4377 1.5 12.9138C1.5 7.38994 5.63229 3.10522 10.5 3.10522C15.3677 3.10522 19.5 7.38994 19.5 12.9138Z" stroke="#4798DE" stroke-width="3"/>
</svg>