<svg xmlns="http://www.w3.org/2000/svg" width="18" height="18" viewBox="0 0 18 18" fill="none">
  <path d="M9.2168 4.02704C11.7553 4.7429 12.8692 5.66355 13.9736 8.7838" stroke="#6CDB7E"/>
  <path d="M9.64844 1C13.8044 2.24486 15.5955 3.62443 16.9998 8.35135" stroke="#6CDB7E"/>
  <path d="M1.36701 3.66002L2.49543 2.5316C2.86982 2.15721 3.47116 2.13954 3.8669 2.4913L6.33012 4.68083C6.73362 5.0395 6.77959 5.65369 6.43397 6.06842L5.40832 7.29921C5.10695 7.66085 5.09784 8.18441 5.39031 8.55329C6.80781 10.3412 7.85744 11.4818 9.85609 12.7177C10.2397 12.9549 10.7348 12.8868 11.0537 12.5679L11.5361 12.0855C11.9267 11.695 12.5598 11.695 12.9503 12.0855L14.9956 14.1307C15.3861 14.5213 15.3861 15.1544 14.9956 15.5449L13.952 16.5886C13.6976 16.8429 13.3234 16.941 12.9776 16.842C5.30428 14.6433 2.47876 11.9303 1.09275 4.5407C1.03276 4.22087 1.13691 3.89012 1.36701 3.66002Z" stroke="#6CDB7E"/>
</svg>