<svg xmlns="http://www.w3.org/2000/svg" width="80" height="80" viewBox="0 0 80 80" fill="none">
  <path d="M19.9994 56.6667H59.9994M16.666 36.6667L23.3327 16.6667H56.666L63.3327 36.6667H16.666ZM16.666 36.6667H63.3327H16.666ZM16.666 36.6667V56.6667V36.6667ZM63.3327 36.6667V56.6667V36.6667ZM16.666 56.6667V63.3334H19.9994V56.6667H16.666ZM16.666 56.6667H19.9994H16.666ZM63.3327 56.6667V63.3334H59.9994V56.6667H63.3327ZM63.3327 56.6667H59.9994H63.3327Z" stroke="#4798DE" stroke-width="3" stroke-linecap="square"/>
  <path d="M26.6673 49.9999C28.5083 49.9999 30.0007 48.5075 30.0007 46.6666C30.0007 44.8256 28.5083 43.3333 26.6673 43.3333C24.8264 43.3333 23.334 44.8256 23.334 46.6666C23.334 48.5075 24.8264 49.9999 26.6673 49.9999Z" stroke="#4798DE" stroke-width="3" stroke-linecap="square"/>
  <path d="M53.3333 49.9999C55.1743 49.9999 56.6667 48.5075 56.6667 46.6666C56.6667 44.8256 55.1743 43.3333 53.3333 43.3333C51.4924 43.3333 50 44.8256 50 46.6666C50 48.5075 51.4924 49.9999 53.3333 49.9999Z" stroke="#4798DE" stroke-width="3" stroke-linecap="square"/>
</svg>