<svg xmlns="http://www.w3.org/2000/svg" width="70" height="70" viewBox="0 0 70 70" fill="none">
  <path d="M61.25 35H55.4167C52.195 35 49.5833 37.6117 49.5833 40.8333V46.6667C49.5833 49.8883 52.195 52.5 55.4167 52.5C58.6383 52.5 61.25 49.8883 61.25 46.6667V35ZM61.25 35C61.25 20.5025 49.4975 8.75 35 8.75C20.5025 8.75 8.75 20.5025 8.75 35V46.6667C8.75 49.8883 11.3617 52.5 14.5833 52.5C17.805 52.5 20.4167 49.8883 20.4167 46.6667V40.8333C20.4167 37.6117 17.805 35 14.5833 35H8.75" stroke="#4798DE" stroke-width="3" stroke-linecap="square"/>
  <path d="M61.2507 40.8333V52.4999C61.2507 58.3333 59.3062 61.2499 55.4173 61.2499C51.5284 61.2499 46.6673 61.2499 40.834 61.2499" stroke="#4798DE" stroke-width="3" stroke-linecap="square"/>
</svg>