<svg xmlns="http://www.w3.org/2000/svg" width="80" height="80" viewBox="0 0 80 80" fill="none">
  <path d="M13.3327 56.6666H6.66602V23.3333H49.9993V56.6666H26.666" stroke="#4798DE" stroke-width="3" stroke-linecap="square"/>
  <path d="M66.6667 56.6667H73.3333V41.852L66.6667 30H50V56.6667H53.3333" stroke="#4798DE" stroke-width="3" stroke-linecap="square"/>
  <path d="M20.0007 63.3333C23.6826 63.3333 26.6673 60.3486 26.6673 56.6667C26.6673 52.9848 23.6826 50 20.0007 50C16.3188 50 13.334 52.9848 13.334 56.6667C13.334 60.3486 16.3188 63.3333 20.0007 63.3333Z" stroke="#4798DE" stroke-width="3" stroke-linecap="square"/>
  <path d="M60.0006 63.3333C63.6825 63.3333 66.6673 60.3486 66.6673 56.6667C66.6673 52.9848 63.6825 50 60.0006 50C56.3188 50 53.334 52.9848 53.334 56.6667C53.334 60.3486 56.3188 63.3333 60.0006 63.3333Z" stroke="#4798DE" stroke-width="3" stroke-linecap="square"/>
</svg>