<svg width="102" height="25" viewBox="0 0 102 25" fill="none" xmlns="http://www.w3.org/2000/svg">
<rect x="0.5" y="0.5" width="101" height="24" rx="1.5" fill="#6CDB7E" stroke="#6CDB7E"/>
<path d="M14.5949 12.372L12.0599 7.9H14.2049L15.6089 10.526L15.9209 11.449L16.2199 10.526L17.6889 7.9H19.6259L16.9999 12.281L19.7559 17H17.6369L16.0379 14.192L15.6869 13.23L15.3489 14.192L13.7369 17H11.7999L14.5949 12.372ZM25.9805 11.956L26.0845 10.773H26.0195L25.4085 11.995L22.0155 17H20.6765V7.9H22.4575V12.853L22.3275 14.075H22.4055L23.0425 12.814L26.4355 7.9H27.7615V17H25.9805V11.956ZM35.7957 9.486H33.1437V17H31.3627V9.486H28.6977V7.9H35.7957V9.486ZM44.4569 9.486H41.2719V17H39.4909V7.9H46.2379V17H44.4569V9.486ZM47.7937 7.991C48.1577 7.92167 48.5563 7.86967 48.9897 7.835C49.4317 7.79167 49.8693 7.77 50.3027 7.77C50.7533 7.77 51.204 7.809 51.6547 7.887C52.114 7.95633 52.5257 8.10367 52.8897 8.329C53.2537 8.54567 53.5483 8.85333 53.7737 9.252C54.0077 9.642 54.1247 10.1533 54.1247 10.786C54.1247 11.358 54.025 11.8433 53.8257 12.242C53.6263 12.632 53.362 12.9527 53.0327 13.204C52.7033 13.4553 52.3263 13.6373 51.9017 13.75C51.4857 13.8627 51.0523 13.919 50.6017 13.919C50.5583 13.919 50.489 13.919 50.3937 13.919C50.2983 13.919 50.1987 13.919 50.0947 13.919C49.9907 13.9103 49.8867 13.9017 49.7827 13.893C49.6873 13.8843 49.618 13.8757 49.5747 13.867V17H47.7937V7.991ZM50.4457 9.304C50.2723 9.304 50.1077 9.31267 49.9517 9.33C49.7957 9.33867 49.67 9.35167 49.5747 9.369V12.32C49.6093 12.3287 49.6613 12.3373 49.7307 12.346C49.8 12.3547 49.8737 12.3633 49.9517 12.372C50.0297 12.372 50.1033 12.372 50.1727 12.372C50.2507 12.372 50.307 12.372 50.3417 12.372C50.5757 12.372 50.8053 12.3503 51.0307 12.307C51.2647 12.2637 51.4727 12.1857 51.6547 12.073C51.8367 11.9517 51.9797 11.787 52.0837 11.579C52.1963 11.371 52.2527 11.098 52.2527 10.76C52.2527 10.474 52.2007 10.24 52.0967 10.058C51.9927 9.86733 51.854 9.71567 51.6807 9.603C51.516 9.49033 51.3253 9.41233 51.1087 9.369C50.892 9.32567 50.671 9.304 50.4457 9.304ZM54.8075 12.45C54.8075 10.9333 55.1411 9.76767 55.8085 8.953C56.4758 8.12967 57.4291 7.718 58.6685 7.718C59.3185 7.718 59.8861 7.83067 60.3715 8.056C60.8568 8.28133 61.2598 8.602 61.5805 9.018C61.9011 9.434 62.1395 9.93233 62.2955 10.513C62.4515 11.0937 62.5295 11.7393 62.5295 12.45C62.5295 13.9667 62.1915 15.1367 61.5155 15.96C60.8481 16.7747 59.8991 17.182 58.6685 17.182C58.0098 17.182 57.4378 17.0693 56.9525 16.844C56.4671 16.6187 56.0641 16.298 55.7435 15.882C55.4315 15.466 55.1975 14.9677 55.0415 14.387C54.8855 13.8063 54.8075 13.1607 54.8075 12.45ZM56.6795 12.45C56.6795 12.9093 56.7185 13.334 56.7965 13.724C56.8745 14.1053 56.9915 14.4347 57.1475 14.712C57.3121 14.9893 57.5201 15.206 57.7715 15.362C58.0228 15.518 58.3218 15.596 58.6685 15.596C59.3011 15.596 59.7908 15.349 60.1375 14.855C60.4841 14.361 60.6575 13.5593 60.6575 12.45C60.6575 12.008 60.6185 11.5963 60.5405 11.215C60.4711 10.8337 60.3585 10.5 60.2025 10.214C60.0465 9.928 59.8428 9.707 59.5915 9.551C59.3401 9.38633 59.0325 9.304 58.6685 9.304C58.0358 9.304 57.5461 9.55967 57.1995 10.071C56.8528 10.5737 56.6795 11.3667 56.6795 12.45ZM71.5433 18.625H70.2823L70.0873 17H64.2373L64.0423 18.625H62.7812V15.414H63.7433C63.8039 15.3187 63.9036 15.1063 64.0423 14.777C64.1809 14.4477 64.3196 13.984 64.4583 13.386C64.5969 12.7793 64.7139 12.0253 64.8093 11.124C64.9046 10.214 64.9479 9.13933 64.9393 7.9H70.3863V15.414H71.5433V18.625ZM68.6053 15.414V9.486H66.5903C66.5383 11.0287 66.4126 12.294 66.2132 13.282C66.0226 14.2613 65.8276 14.972 65.6283 15.414H68.6053ZM77.0345 14.985H74.2395L73.5505 17H71.7695L75.0455 7.835H76.3585L79.6345 17H77.7625L77.0345 14.985ZM74.6945 13.555H76.6445L75.9685 11.527L75.6955 10.097H75.6305L75.3575 11.54L74.6945 13.555ZM83.9748 7.9H85.6648V11.943L86.1198 11.761L88.0048 7.9H90.0068L87.8878 11.891L87.2768 12.333L88.0178 12.879L90.4098 17H88.2648L86.1718 13.048H85.6648V17H83.9748V12.892L83.5068 13.074L81.4138 17H79.3338L81.7128 13.009L82.4148 12.502L81.7388 12.021L79.5158 7.9H81.5828L83.4678 11.787H83.9748V7.9Z" fill="white"/>
</svg>
